<?xml version="1.0" encoding="utf-8"?>
<!-- Generator: Adobe Illustrator 15.0.0, SVG Export Plug-In . SVG Version: 6.00 Build 0)  -->
<!DOCTYPE svg PUBLIC "-//W3C//DTD SVG 1.1//EN" "http://www.w3.org/Graphics/SVG/1.1/DTD/svg11.dtd">
<svg version="1.1" id="Layer_1" xmlns="http://www.w3.org/2000/svg" xmlns:xlink="http://www.w3.org/1999/xlink" x="0px" y="0px"
	 width="300px" height="300px" viewBox="0 0 300 300" enable-background="new 0 0 300 300" xml:space="preserve">
<path fill="#FFFFFF" stroke="#000000" stroke-miterlimit="10" d="M211.59,273.613c0,3.748-26.191,10.5-58.5,10.5
	s-58.5-6.752-58.5-10.5s26.191-6.787,58.5-6.787S211.59,269.865,211.59,273.613z"/>
<rect x="94.59" y="158.326" fill="#FFFFFF" stroke="#FFFFFF" stroke-miterlimit="10" width="117" height="115.287"/>
<ellipse fill="#FFFFFF" stroke="#000000" stroke-miterlimit="10" cx="153.09" cy="158.326" rx="58.5" ry="6.787"/>
<line fill="#FFFFFF" stroke="#000000" stroke-miterlimit="10" x1="94.59" y1="158.326" x2="94.59" y2="274.613"/>
<line fill="#FFFFFF" stroke="#000000" stroke-miterlimit="10" x1="211.59" y1="158.326" x2="211.59" y2="274.613"/>
<line fill="none" stroke="#000000" stroke-miterlimit="10" x1="115.646" y1="163.54" x2="115.646" y2="280.262"/>
<line fill="none" stroke="#000000" stroke-miterlimit="10" x1="140.59" y1="165.113" x2="140.59" y2="283.455"/>
<line fill="none" stroke="#000000" stroke-miterlimit="10" x1="169.098" y1="164.854" x2="169.098" y2="283.455"/>
<line fill="none" stroke="#000000" stroke-miterlimit="10" x1="190.532" y1="163.54" x2="190.532" y2="280.262"/>
<line fill="none" stroke="#000000" stroke-miterlimit="10" x1="94.59" y1="182.613" x2="211.59" y2="182.613"/>
<line fill="none" stroke="#000000" stroke-miterlimit="10" x1="94.59" y1="207.291" x2="211.59" y2="207.291"/>
<line fill="none" stroke="#000000" stroke-miterlimit="10" x1="94.59" y1="230.613" x2="211.59" y2="230.613"/>
<line fill="none" stroke="#000000" stroke-miterlimit="10" x1="94.59" y1="252.113" x2="211.59" y2="252.113"/>
<line fill="none" stroke="#000000" stroke-miterlimit="10" x1="94.59" y1="270.113" x2="211.59" y2="270.113"/>
<path fill="#A4C64F" d="M158.068,81.772c-2.688-10.189-6.134-0.729-11.865-2.117c-11.509-2.789-4.271-33.675-4.651-41.917
	c-0.277-6.021-1.435-13.848-7.986-8.211c-8.792,7.562-5.641,33.185-3.529,43.095c1.77,8.305,7.326,16.742,7.516,25.15
	c0.185,8.187-2.562,8.125-6.832,2.166c-3.361-4.69-8.962-9.976-7.863,1.631c0.961,10.16,11.967,14.463,15.229,23.403
	c3.574,9.794,3.59,21.616,5.1,31.852c0.142,0.473,0.219,0.966,0.232,1.462c0.045,0.272,0.086,0.55,0.134,0.819l-0.15-0.15
	c-0.009,0.09-0.021,0.179-0.033,0.269c1.23,1.147,2.933,1.731,4.885,1.25c13.297-3.278-7.974-55.839,0.651-66.05
	C152.899,89.694,160.245,90.029,158.068,81.772z"/>
<path fill="#BACC51" d="M184.582,155.513c5.263-4.211,6.13-15.609,6.7-22c0.798-8.934-1.379-15.834-8.019-22
	c-4.854-4.507-11.437-8.494-13.529-15.301c-2.364-7.69,2.206-12.438,8.016-5.901c2.903,3.266,3.711,13.85,9.679,9.363
	c5.214-3.919,0.82-16.075-1.516-20.195c-5.951-10.494-10.694-19.231-11.998-31.495c-0.54-5.081-1.727-18.078,7.836-15.685
	c12.427,3.111,9.11,33.93,16.133,42.582c9.729,11.984,11.023-3.592,20.047-3.381c9.153,0.213,8.451,10.979,3.982,16.028
	c-4.666,5.271-12.919,5.797-17.363,11.317c-4.209,5.229-2.427,11.537-1.265,17.331c2.208,11.015,1.106,23.602-1.519,34.536
	c-1.745,7.272-12.596,15.529-16.519,4.8"/>
<path fill="#B5D334" d="M125.059,103.993c-0.395,3.636,1.404,12.746-3.984,13.349c-6.761,0.755-4.447-12.054-4.648-16.183
	c-0.361-7.427,1.766-51.436-9.176-51.342c-0.507,0.395-1.117,0.689-1.834,0.843c-3.601,9.819-1.024,21.612-1.024,31.999
	c0,4.735,1.854,14.643-4,16.013c-8.583,2.01-5.31-9.749-9.968-11.394c-7.209-2.545-3.91,9.618-2.864,12.196
	c2.249,5.539,6.058,8.626,9.664,13.02c6.686,8.146,5.329,20.41,6.535,30.684c0.563,4.802,0.627,16.951,7.601,17.011
	c0.605-0.859,1.506-1.516,2.697-1.78c0.624-4.945,0.748-10.516,2.483-14.951c2.087-5.335,6.747-9.782,9.687-14.832
	c3.541-6.083,6.274-12.893,6.163-20.116C132.255,99.836,126.389,91.722,125.059,103.993z"/>
<path fill="#D7DF23" d="M152.963,157.001c-0.074-11.87-4.758-27.479-9.202-40.069c-1.217-3.445-6.819-15.907-2.145-18.645
	c6.724-3.938,4.812,9.988,6.85,11.88c6.127,5.69,7.451-6.479,7.163-10.351c-0.475-6.375-4.062-12.524-7.352-17.982
	c-4.77-7.911-29.367-34.631-20.847-44.197c9.674-10.859,7.041,23.12,17.532,14.063c7.837-6.767-4.382-31.511,8.632-35.4
	c13.605-4.067,11.434,23.052,8.534,29.37c-3.544,7.722-6.973,15.173-5.164,23.862c1.042,5.003,1.484,13.585,3.333,18.133
	c4.361,10.73,12.455-2.344,18.498,4.151c6.896,7.412-8.808,13.413-11.831,19.15c-4.095,7.772-3.901,18.902-5.188,27.367
	c-0.755,4.968,1.929,23.453-6.698,21.218c-0.675-1.633-1.947-2.359-2.783-3.884"/>
<path fill="#91C955" d="M189.82,115.133c-3.386,2.528-2.285,9.315-5.484,11.248c-6.379,3.853-7.59-5.542-7.85-9.85
	c-0.921-15.239-1.652-30.769-7.798-45.094c-0.034,0.001-0.065,0.005-0.1,0.005c-0.572,0-1.091-0.082-1.561-0.226
	c-6.022,4.214-3.365,24.524-3.06,30.647c0.186,3.717,2.869,13.526-2.166,14.013c-4.731,0.458-6.615-12.366-13.313-10.692
	c-7.488,1.87-0.465,15.199,2.681,18.729c3.997,4.485,8.558,2.904,12.666,6.099c8.324,6.472-2.497,24.127,7.319,29.232
	c2.854,1.483,8.218-0.73,8.665-2.048v0.667c0.145-4.175-0.7-7.889-0.667-12c0.061-7.437,1.814-5.605,6.667-9.152
	C191.156,132.811,196.73,120.393,189.82,115.133z"/>
<path fill="#D7DF23" d="M145.749,91.652c-4.834-4.263-4.567,7.171-6.365,8.695c-4.233,3.59-6.187-3.241-6.164-7.661
	c0.036-6.811,2.798-13.527,2.681-20.58c-0.117-6.97-0.932-15.166-3.782-21.675c-0.59-0.03-1.122-0.146-1.596-0.332
	c-0.405,0.114-0.827,0.18-1.266,0.18c-0.059,0-0.112-0.016-0.171-0.018c-5.598,7.489,3.043,20.692-3.352,27.105
	c-11.366,11.397-15.254-23.986-20.519-26.03c-7.641-2.966-8.922,6.958-7.199,12.146c1.966,5.921,7.754,9.305,10.7,14.552
	c1.958,3.487,6.568,10.673,5.184,14.831c-3.106,9.326-11.625,0.851-16.031-1.994c-2.694-1.74-3.543-3.554-7.218-2.585
	c-0.795,9.649,6.203,16.07,14.566,19.73c9.357,4.096,14.471,8.857,16.815,18.685c1.706,7.155,0.346,29.88,7.259,35.1
	c0.562-0.816,1.39-1.452,2.475-1.755c-2.046-7.183-0.57-37.285,1.952-42.381c2.438-4.926,7.141-5.526,10.182-9.948
	C145.415,105.515,148.248,93.856,145.749,91.652z"/>
<path fill="#D7DF23" d="M186.206,159.485c0.787-8.475-0.893-18.503-1.333-27.331c-0.283-5.678-0.906-11.114-0.146-17.023
	c0.854-6.634,1.29-8.188,6.813-11.146c7.617-4.079,18.538-4.183,23.346-12.5c2.964-5.127,4.593-27.748-4.579-25.899
	c-0.553,10.385-0.199,26.908-14.65,26.45c-4.924-10.677,4.962-22.745,4.55-34.4c-0.211-5.965-0.791-41.03-6.57-41.383
	c-3.456,11.362,0.699,26.008-4.416,36.918c-4.287,9.144-7.995,3.473-13.86-0.186c-4.956-3.092-7.903-1.863-5.816,5.167
	c1.838,6.195,8.26,6.03,11.182,10.783c3.834,6.237-1.26,11.634-2.682,17.068c-2.626,10.027-1.17,24.215-1.17,34.814
	c0,9.498,1.343,18.417,1.333,27.818c-0.003,2.854-1.208,9.569,1.136,11.714c2.474,2.263,6.646,1.05,7.531-2.198"/>
</svg>
